<svg xmlns="http://www.w3.org/2000/svg" viewBox="0 0 16 16" shape-rendering="crispEdges">
  <defs>
    <linearGradient id="b" x1="0" y1="0" x2="1" y2="1">
      <stop offset="0%" stop-color="#a78bfa"/>
      <stop offset="100%" stop-color="#e879f9"/>
    </linearGradient>
    <linearGradient id="s" x1="0" y1="0" x2="0" y2="1">
      <stop offset="0%" stop-color="#000" stop-opacity="0"/>
      <stop offset="100%" stop-color="#000" stop-opacity="0.18"/>
    </linearGradient>
  </defs>

  <!-- antenna -->
  <rect x="7" y="0" width="2" height="1" fill="#f0abfc"/>
  <rect x="7" y="1" width="2" height="2" fill="#f5d0fe"/>

  <!-- head, stepped corners for chunky-pixel rounded look -->
  <rect x="3" y="3" width="10" height="1" fill="url(#b)"/>
  <rect x="2" y="4" width="12" height="1" fill="url(#b)"/>
  <rect x="2" y="5" width="12" height="6" fill="url(#b)"/>
  <rect x="2" y="11" width="12" height="1" fill="url(#b)"/>
  <rect x="3" y="12" width="10" height="1" fill="url(#b)"/>

  <!-- soft bottom shading -->
  <rect x="2" y="5" width="12" height="8" fill="url(#s)"/>

  <!-- cheeks -->
  <rect x="3" y="9" width="2" height="1" fill="#f9a8d4" opacity="0.55"/>
  <rect x="11" y="9" width="2" height="1" fill="#f9a8d4" opacity="0.55"/>

  <!-- eyes (whites + pupils) -->
  <rect x="5" y="6" width="2" height="2" fill="#fff"/>
  <rect x="9" y="6" width="2" height="2" fill="#fff"/>
  <rect x="5" y="7" width="1" height="1" fill="#1a1228"/>
  <rect x="9" y="7" width="1" height="1" fill="#1a1228"/>

  <!-- gentle smile -->
  <rect x="6" y="10" width="1" height="1" fill="#1a1228"/>
  <rect x="9" y="10" width="1" height="1" fill="#1a1228"/>
  <rect x="7" y="10" width="2" height="1" fill="#1a1228" opacity="0.6"/>
</svg>
